<svg width="129" height="129" viewBox="0 0 129 129" fill="none" xmlns="http://www.w3.org/2000/svg">
<circle cx="29" cy="29" r="29" fill="#62B944"/>
<circle cx="29" cy="29" r="29" fill="url(#paint0_linear_1028_1641)"/>
<path d="M65.0491 29.5535H48.4722C46.8636 29.5535 45.5596 30.8575 45.5596 32.4661V76.4683C45.5596 78.0769 46.8636 79.381 48.4722 79.381H100.274C101.882 79.381 103.186 78.0769 103.186 76.4683V32.4661C103.186 30.8575 101.882 29.5535 100.274 29.5535H84.0575M65.0491 29.5535V37.3267C65.0491 38.9353 66.3532 40.2394 67.9618 40.2394H81.1449C82.7535 40.2394 84.0575 38.9353 84.0575 37.3267V29.5535M65.0491 29.5535H84.0575" stroke="#62B944" stroke-width="1.16505" stroke-linejoin="round"/>
<path d="M78.9224 63.3494H96.8181M78.9224 70.7152H81.7416M86.0316 70.7152H89.4637M93.6312 70.7152H97.5535" stroke="#62B944" stroke-width="1.16505" stroke-linecap="round" stroke-linejoin="round"/>
<path d="M102.539 80.5659L102.618 79.9887C102.592 79.9852 102.565 79.9834 102.539 79.9834V80.5659ZM116.728 65.5153C116.844 65.2152 116.694 64.8779 116.394 64.762C116.094 64.6461 115.757 64.7954 115.641 65.0955L116.728 65.5153ZM15.5958 32.0024H29.1319V30.8374H15.5958V32.0024ZM37.6634 39.3689H15.5958V40.5339H37.6634V39.3689ZM37.0808 39.9514V80.5659H38.2459V39.9514H37.0808ZM37.6634 81.1484H102.539V79.9834H37.6634V81.1484ZM102.46 81.1431C103.707 81.3127 105.67 81.2941 107.561 80.6881C109.462 80.0793 111.346 78.8563 112.293 76.5845L111.218 76.1361C110.442 77.9978 108.894 79.0378 107.206 79.5786C105.509 80.1221 103.725 80.1395 102.618 79.9887L102.46 81.1431ZM112.293 76.5845C114.02 72.4443 115.969 67.4804 116.728 65.5153L115.641 65.0955C114.884 67.0557 112.939 72.0091 111.218 76.1361L112.293 76.5845ZM37.0808 80.5659V87.867H38.2459V80.5659H37.0808ZM40.576 91.3621H101.342V90.1971H40.576V91.3621ZM37.0808 87.867C37.0808 89.7973 38.6457 91.3621 40.576 91.3621V90.1971C39.2891 90.1971 38.2459 89.1539 38.2459 87.867H37.0808ZM15.5958 39.3689C13.5616 39.3689 11.9126 37.7198 11.9126 35.6856H10.7476C10.7476 38.3633 12.9182 40.5339 15.5958 40.5339V39.3689ZM29.1319 32.0024C33.522 32.0024 37.0808 35.5613 37.0808 39.9514H38.2459C38.2459 34.9179 34.1654 30.8374 29.1319 30.8374V32.0024ZM15.5958 30.8374C12.9182 30.8374 10.7476 33.008 10.7476 35.6856H11.9126C11.9126 33.6515 13.5616 32.0024 15.5958 32.0024V30.8374Z" fill="#1D1D1B"/>
<circle cx="45.5592" cy="99.0121" r="8.08313" stroke="#1D1D1B" stroke-width="1.16505"/>
<circle cx="101.453" cy="99.0121" r="8.08313" stroke="#1D1D1B" stroke-width="1.16505"/>
<defs>
<linearGradient id="paint0_linear_1028_1641" x1="29" y1="0" x2="29" y2="58" gradientUnits="userSpaceOnUse">
<stop stop-color="#D3EFDC"/>
<stop offset="1" stop-color="#ECF5EE"/>
</linearGradient>
</defs>
</svg>
