<svg width="129" height="129" viewBox="0 0 129 129" fill="none" xmlns="http://www.w3.org/2000/svg">
<circle cx="100" cy="29" r="29" fill="#62B944"/>
<circle cx="100" cy="29" r="29" fill="url(#paint0_linear_1028_1639)"/>
<path d="M32.4662 38.3025H73.7398M102.405 61.351C99.7828 57.1308 93.9564 47.7167 91.6287 43.8211C89.301 39.9256 85.2706 38.5189 83.5464 38.3025H73.7398M102.405 61.351L109.511 66.6757C109.587 66.7327 109.659 66.7952 109.722 66.8658C110.682 67.928 112.427 70.7141 112.427 74.2278C112.427 77.2819 112.427 82.7385 112.427 86.2236C112.427 87.1888 111.645 87.9704 110.68 87.9704H106.285M102.405 61.351H81.8952C77.3911 61.351 73.7398 57.6997 73.7398 53.1956V38.3025M78.9125 87.9704H61.4548M33.3283 87.9704H25.5693" stroke="#1D1D1B" stroke-width="1.16505" stroke-linecap="round"/>
<path d="M25.1256 75.851H10.2541M27.1731 64.5973H3.57275M16.1811 51.8286H35.902" stroke="#62B944" stroke-width="1.16505" stroke-linecap="round"/>
<circle cx="47.0657" cy="88.1428" r="10.9722" stroke="#62B944" stroke-width="1.16505"/>
<path d="M103.912 88.1428C103.912 94.2109 99.0682 99.115 93.112 99.115C87.1557 99.115 82.3123 94.2109 82.3123 88.1428C82.3123 82.0748 87.1557 77.1707 93.112 77.1707C99.0682 77.1707 103.912 82.0748 103.912 88.1428Z" stroke="#62B944" stroke-width="1.16505"/>
<defs>
<linearGradient id="paint0_linear_1028_1639" x1="100" y1="0" x2="100" y2="58" gradientUnits="userSpaceOnUse">
<stop stop-color="#D3EFDC"/>
<stop offset="1" stop-color="#ECF5EE"/>
</linearGradient>
</defs>
</svg>
