<svg width="1942" height="496" viewBox="0 0 1942 496" fill="none" xmlns="http://www.w3.org/2000/svg">
<path d="M23.8773 495.593C19.4228 495.593 15.1507 493.822 12.0009 490.67C8.85102 487.519 7.08146 483.245 7.08146 478.788C7.08146 474.331 8.85102 470.056 12.0009 466.905C15.1507 463.753 19.4228 461.982 23.8773 461.982H279.128V313.025L257.335 312.822C210.326 312.404 122.999 303.371 66.2757 247.659C-11.8763 170.938 -0.0405602 32.7985 1.56915 17.3044L1.62218 16.6271C1.89495 12.5994 3.63025 8.81056 6.50122 5.97415C9.39117 3.07902 13.241 1.34348 17.3231 1.09557L17.8908 1.04251C21.4503 0.730382 31.174 0.00312129 44.7536 0.00312129C93.1665 0.00312129 183.398 8.82701 243.609 67.9224C256.677 80.8981 267.82 95.6798 276.698 111.817L295.912 146.332L315.113 111.817C323.998 95.6799 335.146 80.8984 348.218 67.9224C408.414 8.82701 498.644 0.00312129 547.101 0.00312129C560.911 0.00312129 570.732 0.745989 574.313 1.0706C578.468 1.28806 582.395 3.03583 585.338 5.97728C588.24 8.84249 589.982 12.6798 590.229 16.752L590.282 17.551C591.864 33.0451 603.484 171.156 525.573 247.65C468.849 303.362 381.507 312.395 334.501 312.813L312.72 313.016V461.986H953.484V313.025L931.703 312.822C884.694 312.404 797.354 303.371 740.631 247.659C662.504 170.938 674.327 32.7954 675.937 17.3076L676.006 16.6302C676.277 12.6091 678.007 8.8254 680.869 5.98976C683.752 3.09022 687.598 1.34896 691.678 1.09557L692.246 1.04251C695.799 0.730382 705.529 0 719.109 0C767.522 0 857.74 8.82701 917.952 67.9224C931.023 80.8965 942.166 95.6797 951.041 111.82L970.255 146.336L989.459 111.817C998.34 95.6792 1009.49 80.8975 1022.56 67.9224C1082.77 8.82701 1173 0.00312129 1221.43 0.00312129C1235.25 0.00312129 1245.07 0.745989 1248.65 1.0706C1252.81 1.28806 1256.73 3.03583 1259.68 5.97728C1262.57 8.84648 1264.31 12.6824 1264.56 16.752L1264.63 17.551C1266.21 33.0451 1277.83 171.156 1199.92 247.65C1143.18 303.362 1055.85 312.395 1008.84 312.813L987.051 313.016V461.986H1628.35V313.025L1606.57 312.822C1559.56 312.404 1472.22 303.371 1415.5 247.659C1337.35 170.922 1349.19 32.811 1350.8 17.3076L1350.87 16.6459C1351.18 12.3912 1353.09 8.41255 1356.22 5.51844C1359.05 2.8886 1362.7 1.3247 1366.55 1.09557L1367.14 1.04251C1370.67 0.730382 1380.39 0.00312129 1394 0.00312129C1442.42 0.00312129 1532.62 8.82701 1592.84 67.9224C1605.88 80.8607 1616.99 95.5966 1625.85 111.683L1644.97 145.967L1664.23 111.745C1673.19 95.6468 1684.37 80.8938 1697.45 67.9224C1757.66 8.82701 1847.89 0.00312129 1896.32 0.00312129C1910.13 0.00312129 1919.97 0.745989 1923.55 1.0706C1927.7 1.2813 1931.62 3.02527 1934.56 5.96479C1937.46 8.83589 1939.21 12.6766 1939.45 16.752L1939.52 17.551C1941.11 33.0451 1952.71 171.144 1874.8 247.65C1818.08 303.362 1730.75 312.395 1683.74 312.813L1661.95 313.016V461.97H1924.34C1928.79 461.97 1933.06 463.741 1936.21 466.892C1939.36 470.044 1941.13 474.318 1941.13 478.775C1941.13 483.232 1939.36 487.506 1936.21 490.658C1933.06 493.81 1928.79 495.58 1924.34 495.58L23.8773 495.593ZM33.5262 56.1146C34.1501 149.547 64.4694 198.811 89.7911 223.672C115.113 248.533 164.552 278.294 256.745 279.196L279.715 279.427L278.932 256.445C277.528 215.197 268.013 138.976 220.087 91.9002C194.875 67.1733 146 37.0373 56.268 33.969L33.364 33.1981L33.5262 56.1146ZM1884.78 33.9878C1795.03 37.0435 1746.15 67.1764 1720.96 91.9033C1673.02 138.963 1663.51 215.194 1662.1 256.448L1661.33 279.418L1684.3 279.203C1776.48 278.282 1825.96 248.502 1851.25 223.678C1876.53 198.854 1906.89 149.55 1907.52 56.1208L1907.67 33.2043L1884.78 33.9878ZM1209.9 33.9878C1120.15 37.0435 1071.27 67.1764 1046.07 91.9033C998.141 138.979 988.629 215.194 987.222 256.448L986.439 279.418L1009.42 279.203C1101.6 278.282 1151.08 248.502 1176.36 223.678C1201.64 198.854 1232 149.55 1232.64 56.1208L1232.79 33.2043L1209.9 33.9878ZM535.543 33.9878C445.796 37.0435 396.924 67.1764 371.724 91.9033C323.782 138.979 314.271 215.194 312.879 256.448L312.096 279.418L335.066 279.203C427.243 278.282 476.739 248.502 502.004 223.678C527.326 198.817 557.645 149.566 558.282 56.1208L558.444 33.2043L535.543 33.9878ZM707.847 56.1177C708.471 149.563 738.79 198.814 764.125 223.675C789.231 248.333 838.549 277.954 931.023 279.103L954.061 279.387L953.265 256.336C951.846 215.116 942.306 138.935 894.42 91.9002C869.22 67.1733 820.333 37.0373 730.602 33.969L707.697 33.1981L707.847 56.1177ZM1382.61 56.1708C1382.93 90.2116 1389.07 174.668 1439 223.675C1464.09 248.333 1513.43 277.954 1605.9 279.103L1628.94 279.387L1628.14 256.336C1626.72 215.116 1617.18 138.935 1569.29 91.9002C1544.08 67.1452 1495.17 37.0248 1405.35 33.969L1382.41 33.1981L1382.61 56.1708Z" fill="#E0E0E0"/>
</svg>
