<svg width="597" height="150" viewBox="0 0 597 150" fill="none" xmlns="http://www.w3.org/2000/svg">
<g clip-path="url(#clip0_11_996)">
<mask id="mask0_11_996" style="mask-type:luminance" maskUnits="userSpaceOnUse" x="0" y="0" width="598" height="150">
<path d="M597.001 0H0V150H597.001V0Z" fill="white"/>
</mask>
<g mask="url(#mask0_11_996)">
<path d="M19.481 161.518C18.166 161.518 16.9049 160.995 15.9751 160.065C15.0452 159.134 14.5228 157.872 14.5228 156.556C14.5228 155.241 15.0452 153.979 15.9751 153.048C16.9049 152.118 18.166 151.595 19.481 151.595H94.8318V107.619L88.3983 107.559C74.5211 107.435 48.7421 104.768 31.9971 88.3207C8.92646 65.6704 12.4204 24.8878 12.8956 20.3135L12.9112 20.1135C12.9918 18.9244 13.504 17.8058 14.3516 16.9685C15.2047 16.1137 16.3412 15.6013 17.5462 15.5282L17.7138 15.5125C18.7646 15.4203 21.635 15.2056 25.6438 15.2056C39.9354 15.2056 66.5718 17.8107 84.3463 35.2574C88.204 39.0882 91.4935 43.4521 94.1144 48.2163L99.7863 58.4062L105.455 48.2163C108.077 43.4522 111.368 39.0882 115.227 35.2574C132.997 17.8107 159.634 15.2056 173.938 15.2056C178.015 15.2056 180.914 15.4249 181.971 15.5208C183.198 15.585 184.357 16.101 185.226 16.9694C186.083 17.8153 186.597 18.9481 186.67 20.1504L186.685 20.3863C187.152 24.9606 190.583 65.7349 167.583 88.318C150.838 104.766 125.054 107.433 111.178 107.556L104.748 107.616V151.596H293.903V107.619L287.474 107.559C273.596 107.435 247.814 104.768 231.069 88.3207C208.005 65.6704 211.496 24.8869 211.971 20.3144L211.991 20.1144C212.071 18.9273 212.582 17.8102 213.427 16.9731C214.278 16.117 215.413 15.603 216.618 15.5282L216.785 15.5125C217.834 15.4203 220.707 15.2047 224.715 15.2047C239.007 15.2047 265.64 17.8107 283.414 35.2574C287.273 39.0877 290.562 43.4521 293.182 48.2173L298.854 58.4072L304.523 48.2163C307.145 43.452 310.435 39.088 314.294 35.2574C332.068 17.8107 358.705 15.2056 373 15.2056C377.081 15.2056 379.981 15.4249 381.038 15.5208C382.264 15.585 383.424 16.101 384.293 16.9694C385.147 17.8164 385.66 18.9489 385.733 20.1504L385.753 20.3863C386.22 24.9606 389.651 65.7349 366.651 88.318C349.902 104.766 324.122 107.433 310.246 107.556L303.812 107.616V151.596H493.126V107.619L486.696 107.559C472.819 107.435 447.036 104.768 430.291 88.3207C407.221 65.6658 410.718 24.8915 411.193 20.3144L411.214 20.119C411.304 18.863 411.868 17.6883 412.793 16.8339C413.626 16.0575 414.704 15.5958 415.84 15.5282L416.015 15.5125C417.059 15.4203 419.928 15.2056 423.945 15.2056C438.24 15.2056 464.866 17.8107 482.644 35.2574C486.491 39.0771 489.773 43.4276 492.389 48.1767L498.033 58.2984L503.716 48.1951C506.362 43.4424 509.664 39.0869 513.525 35.2574C531.299 17.8107 557.936 15.2056 572.232 15.2056C576.309 15.2056 579.213 15.4249 580.27 15.5208C581.495 15.583 582.653 16.0979 583.521 16.9657C584.377 17.8133 584.891 18.9472 584.965 20.1504L584.985 20.3863C585.452 24.9606 588.878 65.7312 565.879 88.318C549.134 104.766 523.355 107.433 509.478 107.556L503.044 107.616V151.591H580.502C581.817 151.591 583.078 152.114 584.008 153.045C584.938 153.975 585.46 155.237 585.46 156.553C585.46 157.869 584.938 159.131 584.008 160.061C583.078 160.991 581.817 161.514 580.502 161.514L19.481 161.518ZM22.3294 31.7713C22.5136 59.3554 31.4639 73.8993 38.939 81.239C46.414 88.5787 61.0086 97.3652 88.2243 97.6315L95.005 97.6997L94.7738 90.9147C94.3594 78.7372 91.5506 56.2343 77.4027 42.3363C69.9599 35.0362 55.5319 26.1392 29.0428 25.2333L22.2815 25.0057L22.3294 31.7713ZM568.825 25.2389C542.331 26.141 527.899 35.0371 520.465 42.3372C506.313 56.2306 503.505 78.7363 503.09 90.9156L502.863 97.6969L509.643 97.6333C536.854 97.3615 551.462 88.5695 558.925 81.2409C566.388 73.9122 575.35 59.3563 575.538 31.7732L575.582 25.0076L568.825 25.2389ZM369.598 25.2389C343.104 26.141 328.673 35.0371 321.234 42.3372C307.086 56.2352 304.278 78.7363 303.863 90.9156L303.632 97.6969L310.417 97.6333C337.628 97.3615 352.236 88.5695 359.698 81.2409C367.16 73.9122 376.123 59.3563 376.311 31.7732L376.355 25.0076L369.598 25.2389ZM170.526 25.2389C144.032 26.141 129.605 35.0371 122.166 42.3372C108.014 56.2352 105.206 78.7363 104.795 90.9156L104.564 97.6969L111.345 97.6333C138.556 97.3615 153.167 88.5695 160.625 81.2409C168.1 73.9012 177.051 59.3609 177.239 31.7732L177.287 25.0076L170.526 25.2389ZM221.391 31.7723C221.575 59.36 230.525 73.9002 238.004 81.24C245.416 88.5198 259.974 97.2647 287.273 97.6039L294.074 97.6877L293.839 90.8825C293.42 78.7132 290.604 56.2223 276.468 42.3363C269.029 35.0362 254.597 26.1392 228.108 25.2333L221.347 25.0057L221.391 31.7723ZM420.584 31.7879C420.676 41.8378 422.49 66.7716 437.229 81.24C444.636 88.5198 459.2 97.2647 486.498 97.6039L493.299 97.6877L493.063 90.8825C492.644 78.7132 489.828 56.2223 475.692 42.3363C468.249 35.0279 453.809 26.1355 427.296 25.2333L420.523 25.0057L420.584 31.7879Z" fill="white"/>
</g>
</g>
<defs>
<clipPath id="clip0_11_996">
<rect width="597" height="150" fill="white"/>
</clipPath>
</defs>
</svg>
