<svg width="129" height="129" viewBox="0 0 129 129" fill="none" xmlns="http://www.w3.org/2000/svg">
<circle cx="29" cy="100" r="29" fill="#62B944"/>
<circle cx="29" cy="100" r="29" fill="url(#paint0_linear_1028_1640)"/>
<path d="M55.6021 17.6601V27.3786M68.7874 27.3786V8.15527M82.3982 17.6601V27.3786" stroke="#62B944" stroke-width="1.16505" stroke-linecap="round"/>
<path d="M37.4989 87.28V83.8836C37.4989 82.275 36.1949 80.9709 34.5863 80.9709H27.0581C25.4495 80.9709 24.1455 82.275 24.1455 83.8836V107.772C24.1455 109.38 25.4495 110.684 27.0581 110.684H34.955C36.3599 110.684 37.4989 109.545 37.4989 108.14V108.14M37.4989 87.28C41.0874 85.1091 50.107 81.6629 57.4773 85.2448C59.6856 86.2285 64.9717 88.2365 68.4498 88.3993C69.4321 88.4453 70.63 88.4707 71.9034 88.482C77.7759 88.534 85.1134 88.3704 87.6001 93.6908V93.6908C87.6891 93.9621 87.8011 94.317 87.9183 94.7083M37.4989 87.28V108.14M68.4498 97.2523L85.6345 97.7721C87.2769 97.8218 88.4496 96.5144 87.9865 94.938C87.9636 94.8603 87.9409 94.7837 87.9183 94.7083M87.9183 94.7083L103.173 87.5065C103.349 87.4235 103.531 87.3572 103.721 87.3174C105.46 86.9539 108.546 86.842 111.024 88.2323C112.467 89.0418 112.121 90.9878 110.739 91.8969L83.7823 109.624C83.6364 109.72 83.4828 109.804 83.3208 109.869C80.6069 110.962 74.1396 112.66 68.0358 111.397L54.2188 107.497C49.0175 106.03 43.3382 104.675 38.6674 107.394C38.2793 107.62 37.8889 107.868 37.4989 108.14" stroke="#1D1D1B" stroke-width="1.16505" stroke-linejoin="round"/>
<circle cx="68.7089" cy="56.2136" r="23.0097" stroke="#62B944" stroke-width="1.16505"/>
<path d="M65.2355 63.4952C64.9138 63.4952 64.653 63.2344 64.653 62.9127V50.0972C64.653 49.7755 64.9138 49.5146 65.2355 49.5146H69.7949C71.535 49.5146 72.9023 49.9141 73.8966 50.713C74.9041 51.5119 75.4078 52.657 75.4078 54.1482C75.4078 55.6528 74.9041 56.8045 73.8966 57.6034C72.9023 58.4023 71.535 58.8017 69.7949 58.8017H65.9084C65.7366 58.8017 65.6472 58.5971 65.764 58.4711C65.8857 58.3397 66.1053 58.4258 66.1053 58.6049V62.9127C66.1053 63.2344 65.8445 63.4952 65.5227 63.4952H65.2355ZM66.1053 57.7377C66.1053 57.9129 65.8915 57.9984 65.7706 57.8717C65.6527 57.7481 65.7403 57.5435 65.9111 57.5435H69.8145C71.1491 57.5435 72.1696 57.2506 72.8761 56.6647C73.5957 56.0789 73.9555 55.2467 73.9555 54.1682C73.9555 53.0897 73.5957 52.2575 72.8761 51.6717C72.1696 51.0858 71.1491 50.7929 69.8145 50.7929H65.9084C65.7366 50.7929 65.6472 50.5882 65.764 50.4622C65.8857 50.3309 66.1053 50.417 66.1053 50.596V57.7377ZM63.0317 60.8988C62.789 60.8988 62.5923 60.7021 62.5923 60.4594C62.5923 60.2168 62.789 60.0201 63.0317 60.0201H70.0816C70.3243 60.0201 70.521 60.2168 70.521 60.4594C70.521 60.7021 70.3243 60.8988 70.0816 60.8988H63.0317Z" fill="#62B944"/>
<defs>
<linearGradient id="paint0_linear_1028_1640" x1="29" y1="71" x2="29" y2="129" gradientUnits="userSpaceOnUse">
<stop stop-color="#D3EFDC"/>
<stop offset="1" stop-color="#ECF5EE"/>
</linearGradient>
</defs>
</svg>
