<svg width="120" height="120" viewBox="0 0 120 120" fill="none" xmlns="http://www.w3.org/2000/svg">
<path d="M6.52175 60.6421C5.61489 74.2031 8.67073 89.2776 11.6159 94.7262C13.7804 98.7305 19.5901 104.109 27.1642 108.091M6.52175 60.6421C6.82189 56.154 7.55608 51.8317 8.87198 48.0789C14.1639 32.9871 37.4876 34.7511 40.8195 36.5151C44.1515 38.279 54.3433 43.375 56.3033 54.5468C57.8713 63.4843 60.8761 66.6333 62.1825 67.0906C67.6056 71.7292 77.5502 83.7504 73.9434 94.7262C69.4349 108.446 64.7312 113.346 48.0714 113.542C40.6107 113.63 33.3071 111.32 27.1642 108.091M6.52175 60.6421C9.33864 60.7482 15.369 60.319 16.9554 57.7536M25.9889 75.38C28.5152 75.7472 35.018 75.7766 40.8195 72.9564M27.1642 108.091C28.682 107.337 32.2904 104.718 34.5818 100.277" stroke="#1A6CB5" stroke-width="2" stroke-linecap="round" stroke-linejoin="round"/>
<path d="M37.6658 73.1767C33.6113 60.8382 44.7904 47.3246 50.8868 42.1101C52.3554 41.596 55.7333 38.0561 57.4959 28.009C58.9268 19.8531 64.2604 14.5778 68.8501 11.3383C71.3279 9.58939 73.5889 8.43381 74.902 7.73861C78.6476 5.75563 104.867 3.77265 110.816 20.7381C112.486 25.4998 113.322 31.0773 113.564 36.8178C114.185 51.5299 110.901 67.3126 107.731 73.1767C104.647 78.883 94.9773 87.0721 83.0299 91.3969C77.9087 93.2507 72.3689 94.3945 66.7498 94.3284C48.0217 94.1081 42.7341 88.5998 37.6658 73.1767Z" fill="#E0F3E5"/>
<path d="M68.8501 11.3383C71.3279 9.58939 73.5889 8.43381 74.902 7.73861C78.6476 5.75563 104.867 3.77265 110.816 20.7381C112.486 25.4998 113.322 31.0773 113.564 36.8178M68.8501 11.3383C64.2604 14.5778 58.9268 19.8531 57.4959 28.009C55.7333 38.0561 52.3554 41.596 50.8868 42.1101C44.7904 47.3246 33.6113 60.8382 37.6658 73.1767C42.7341 88.5998 48.0217 94.1081 66.7498 94.3284C72.3689 94.3945 77.9087 93.2507 83.0299 91.3969M68.8501 11.3383C69.9126 13.0761 73.2275 16.7281 77.9867 17.4331M113.564 36.8178C114.185 51.5299 110.901 67.3126 107.731 73.1767C104.647 78.883 94.9773 87.0721 83.0299 91.3969M113.564 36.8178C111.4 37.5552 105.616 38.8087 99.7994 37.9239M62.7839 44.9744C66.6764 45.3416 74.8139 46.9133 76.224 50.2624M46.2591 63.9228C49.564 63.4822 56.4383 63.3059 57.4959 66.1261M83.0299 91.3969C82.377 89.1426 80.1018 84.017 76.224 81.5493" stroke="#1A6CB5" stroke-width="2" stroke-linecap="round" stroke-linejoin="round"/>
<circle cx="30.3959" cy="46.5167" r="2.64397" fill="#1A6CB5"/>
<circle cx="23.3451" cy="87.9388" r="2.64397" fill="#1A6CB5"/>
<circle cx="53.3119" cy="103.142" r="2.64397" fill="#1A6CB5"/>
<circle cx="87.0213" cy="30.8733" r="2.42364" fill="#1A6CB5"/>
<circle cx="93.1893" cy="60.3106" r="2.42364" fill="#1A6CB5"/>
<circle cx="74.7127" cy="66.4799" r="2.42364" fill="#1A6CB5"/>
<circle cx="55.7342" cy="78.3777" r="2.42364" fill="#1A6CB5"/>
</svg>
