<svg width="120" height="120" viewBox="0 0 120 120" fill="none" xmlns="http://www.w3.org/2000/svg">
<path d="M69.5 6.48651C63.9 8.08651 59.5 13.8198 58 16.4865L63.5371 33.0518H63.9462C63.3506 23.0455 67.4472 11.8553 69.5 6.48651Z" stroke="#1A6CB5" stroke-width="2"/>
<path d="M50.5 6.98651C55.9395 20.0736 55.2639 29.2359 54.1492 33.539H65.406C63.006 12.339 54.3333 7.31984 50.5 6.98651Z" fill="#DBF1E2" stroke="#1A6CB5" stroke-width="2"/>
<path d="M59.9995 34V47M59.9995 115C57.4089 114.887 54.1739 114.43 50.6613 113.5M59.9995 115C79.499 114 101.5 99.5 101 74.5C100.5 49.5 73.0287 40.7081 69.5 39.5C66.8509 38.5931 65.6667 35.8333 65.5 34M59.9995 115V106M51.4995 39.5C52.333 39.3333 54 38 54 34M51.4995 39.5C46.1072 49 38.3904 77.1 50.6613 113.5M51.4995 39.5C49.1431 40.1821 46.3899 41.2091 43.5 42.5914M50.6613 113.5C47.7297 112.724 44.6049 111.619 41.5 110.112M43.5 42.5914C30.8551 48.6394 15.5925 61.4879 19.4995 82C22.3158 96.7855 31.8105 105.409 41.5 110.112M43.5 42.5914C34.5 52.1358 21.5 79.0022 41.5 110.112M59.9995 47C69.9997 47.6667 90.3 54.1 91.5 74.5C93 100 66.999 105 59.9995 106M59.9995 47V56M59.9995 106V95.5M59.9995 95.5C67.4997 94.8333 82.2 89.7 81 74.5C79.8 59.3 66.4997 55.8333 59.9995 56M59.9995 95.5V85M59.9995 56V68.5M59.9995 68.5C63.1663 68.6667 69.7 70.1 70.5 74.5C71.5 80 68.4995 84.5 59.9995 85M59.9995 68.5V85" stroke="#1A6CB5" stroke-width="2"/>
</svg>
