<svg width="120" height="120" viewBox="0 0 120 120" fill="none" xmlns="http://www.w3.org/2000/svg">
<path d="M12.7816 69.5787C17.2942 47.9523 61.0121 6.08378 106.336 18.3074M106.336 18.3074C104.098 19.2165 97.9736 21.91 92.958 25.7923M106.336 18.3074C109.157 24.4505 108.487 41.3754 89.8316 59.2782M44.3646 56.1224C45.398 54.3838 47.1999 51.8532 48.4098 50.4296M25.5221 61.7419C25.7675 54.1963 30.5006 41.3749 48.4098 50.4296M48.4098 50.4296C46.1558 46.3041 43.8293 36.8496 52.5551 32.0354C61.2808 27.2212 68.5576 34.2058 71.1053 38.2999M48.4098 50.4296C55.0099 42.6636 63.8782 39.3774 71.1053 38.2999M71.1053 38.2999C74.7046 37.7634 77.8967 37.7746 80.1991 38.0531C84.5232 32.9308 88.9821 28.8699 92.958 25.7923M71.1053 38.2999C70.3755 34.5192 70.9092 26.1304 78.8827 22.8207C86.8562 19.511 91.5885 23.4227 92.958 25.7923M6.51758 76.1549C11.8957 68.281 31.1895 53.0598 65.3403 55.1661C99.491 57.2723 111.664 70.0362 113.481 76.1549M6.51758 76.1549C8.88702 85.1433 22.6522 103.271 58.7575 103.872C94.8627 104.474 110.284 85.6447 113.481 76.1549M6.51758 76.1549C8.59475 74.6532 13.524 73.0551 20.9562 73.9899M113.481 76.1549C109.433 73.5364 104.355 73.0912 99.3454 73.7378M20.9562 73.9899C25.8129 74.6008 31.7385 76.2933 38.6356 79.8013C40.8166 78.1009 44.0068 76.1999 47.8535 74.7193M20.9562 73.9899C25.6126 69.7689 37.5112 64.0054 47.8535 74.7193M47.8535 74.7193C46.7796 70.9016 47.7089 62.6928 60.017 60.3993C64.3526 60.1352 73.147 62.6294 73.6396 74.7193M47.8535 74.7193C54.9525 71.9868 64.2872 70.6859 73.6396 74.7193M73.6396 74.7193C76.4067 75.9126 79.1754 77.5729 81.8882 79.8013C85.666 77.5934 92.4415 74.6288 99.3454 73.7378M73.6396 74.7193C74.1952 71.4431 77.5999 64.9671 86.7736 65.2729C94.1331 65.5182 98.9772 71.0436 99.3454 73.7378" stroke="#1A6CB5" stroke-width="2" stroke-linecap="round" stroke-linejoin="round"/>
</svg>
