<svg width="120" height="120" viewBox="0 0 120 120" fill="none" xmlns="http://www.w3.org/2000/svg">
<path d="M63.0348 112.776C65.5218 109.889 70.4001 101.003 70.0169 88.5525M63.0348 112.776C62.705 110.694 62.2729 107.318 61.9714 103.543M63.0348 112.776C60.248 111.569 54.2039 107.718 52.3213 101.971C50.4387 96.2245 44.7669 88.7603 42.1662 85.7465C45.8144 87.8524 48.9165 90.0232 51.5136 92.1119M68.4826 79.8105C77.646 82.9395 81.0544 94.9898 81.6131 100.624C79.192 92.6387 74.4762 89.4503 70.0169 88.5525M68.4826 79.8105C67.6385 79.7889 66.3538 80.1676 65.1306 81.3425M68.4826 79.8105C69.9181 72.3233 79.4441 57.6115 84.0277 51.1915C74.0204 58.8209 66.9906 66.8417 64.7266 69.8984M61.9174 89.1695C63.9126 88.4157 66.9022 87.9254 70.0169 88.5525M61.9174 89.1695C61.4192 93.4042 61.5919 98.79 61.9714 103.543M61.9174 89.1695C62.3958 85.1028 63.7224 82.695 65.1306 81.3425M61.9714 103.543C61.1697 101.964 59.1028 99.0674 55.5488 95.6522M55.5488 95.6522C54.7231 90.6548 54.6353 80.043 58.019 67.1687M55.5488 95.6522C54.37 94.5195 53.0276 93.3297 51.5136 92.1119M65.1306 81.3425C64.7476 78.0054 64.6491 74.0263 64.7266 69.8984M64.7266 69.8984C64.9012 60.5982 65.9691 50.5424 66.6883 45.3704C63.0697 52.0066 60.5055 58.5372 58.7239 64.6294M58.019 67.1687C58.2391 66.3315 58.4738 65.4848 58.7239 64.6294M58.019 67.1687C55.842 66.7039 52.4481 66.6382 48.844 67.7609M58.7239 64.6294C45.2194 51.2589 37.9295 69.1791 35.9727 79.8105C39.1591 72.6601 44.1778 69.2145 48.844 67.7609M58.7239 64.6294C59.1212 61.8675 59.2239 58.0918 58.7239 53.7751M51.5136 92.1119C50.4145 88.8162 48.3418 79.3321 48.844 67.7609M58.7239 53.7751C55.9145 51.1381 48.844 43.7603 46.3753 35.586C44.4003 29.0465 38.6173 20.2282 35.9727 16.6364C42.0729 20.5917 46.6566 25.315 50.0618 30.287M58.7239 53.7751C58.3969 50.9516 57.812 47.8966 56.8831 44.7425M56.8831 44.7425C59.9031 37.3555 67.7515 20.5007 74.9854 12.1777C71.5503 13.5964 64.9171 18.0013 59.4294 26.0053M56.8831 44.7425C56.1216 42.1571 55.1289 39.5052 53.8576 36.8595M53.8576 36.8595C52.7959 34.6501 51.5399 32.4451 50.0618 30.287M53.8576 36.8595C55.3816 32.687 57.3209 29.0805 59.4294 26.0053M50.0618 30.287C49.768 25.035 50.4539 13.6888 55.5488 10.32M55.5488 10.32C57.3124 12.7677 60.5576 19.3316 59.4294 26.0053M55.5488 10.32L53.1872 7.84286M55.5488 10.32V7.22357M55.5488 10.32L58.019 7.22357" stroke="#1A6CB5" stroke-width="2" stroke-linecap="round" stroke-linejoin="round"/>
</svg>
