<svg width="120" height="120" viewBox="0 0 120 120" fill="none" xmlns="http://www.w3.org/2000/svg">
<path d="M43.5144 8.1977L43.8747 9.13053L43.5144 8.1977ZM76.0591 8.38071L76.4428 7.45728V7.45728L76.0591 8.38071ZM82.4616 15.897L83.4386 15.6835V15.6835L82.4616 15.897ZM80.8896 31.8242L81.4111 32.6775C81.4566 32.6497 81.4999 32.6182 81.5404 32.5835L80.8896 31.8242ZM59.0672 49.6027C58.7048 50.0195 58.7489 50.6511 59.1657 51.0135C59.5824 51.3759 60.214 51.3319 60.5764 50.9151L59.0672 49.6027ZM94.5303 25.6918L94.7288 26.6719L94.5303 25.6918ZM103.253 27.7908L102.591 28.5399L103.253 27.7908ZM115.053 60.7189L114.056 60.6509L115.053 60.7189ZM111.465 67.9507L112.06 68.7545L111.465 67.9507ZM95.3556 71.5111C94.8037 71.4899 94.3391 71.92 94.3179 72.4719C94.2967 73.0238 94.7269 73.4884 95.2787 73.5096L95.3556 71.5111ZM71.7544 57.7476C71.2361 57.557 70.6614 57.8228 70.4708 58.3411C70.2802 58.8595 70.5459 59.4342 71.0643 59.6248L71.7544 57.7476ZM105.286 84.0114L106.143 83.496L105.286 84.0114ZM105.127 94.5397L105.975 95.0685L105.127 94.5397ZM79.011 113.96L78.7625 112.992L79.011 113.96ZM69.3759 111.804L70.0282 111.046L69.3759 111.804ZM61.0561 98.1315L60.1264 97.7631C60.1067 97.8128 60.0911 97.8639 60.0796 97.916L61.0561 98.1315ZM67.6665 72.4512C67.7055 71.9003 67.2906 71.4221 66.7397 71.383C66.1887 71.344 65.7105 71.759 65.6715 72.3099L67.6665 72.4512ZM53.8431 111.233L53.0953 110.569L53.8431 111.233ZM45.611 114.8L45.5321 115.797L45.611 114.8ZM16.3843 95.5827L17.2225 95.0372L16.3843 95.5827ZM15.0195 87.6721L14.0708 87.356L15.0195 87.6721ZM10.4787 70.1473L10.8297 69.2109L10.4787 70.1473ZM5.54544 63.9576L4.56298 64.1441H4.56298L5.54544 63.9576ZM16.0949 28.5296L16.7906 29.2479L16.0949 28.5296ZM47.921 57.1219C48.2206 57.5858 48.8396 57.719 49.3035 57.4194C49.7675 57.1198 49.9007 56.5008 49.6011 56.0369L47.921 57.1219ZM38.1363 31.8242L39.1119 31.6046L38.1363 31.8242ZM37.0283 16.5104L38.022 16.622L37.0283 16.5104ZM25.7883 25.6632L25.9835 24.6824L25.7883 25.6632ZM47.898 59.1012C48.4181 59.287 48.9903 59.0159 49.1761 58.4958C49.3618 57.9757 49.0908 57.4035 48.5707 57.2178L47.898 59.1012ZM26.449 49.3172C25.9289 49.1314 25.3567 49.4025 25.1709 49.9226C24.9852 50.4427 25.2562 51.0149 25.7764 51.2007L26.449 49.3172ZM47.9136 64.9318C48.4541 64.818 48.7999 64.2877 48.6862 63.7472C48.5724 63.2068 48.042 62.8609 47.5016 62.9747L47.9136 64.9318ZM24.1579 62.9649C23.6121 62.8809 23.1015 63.2553 23.0175 63.8012C22.9335 64.3471 23.3079 64.8577 23.8538 64.9416L24.1579 62.9649ZM52.7269 72.4462C53.0541 72.0013 52.9586 71.3754 52.5136 71.0482C52.0687 70.721 51.4428 70.8165 51.1156 71.2614L52.7269 72.4462ZM37.948 89.1694C37.6208 89.6144 37.7163 90.2403 38.1612 90.5675C38.6062 90.8946 39.2321 90.7992 39.5593 90.3542L37.948 89.1694ZM59.2269 74.6587C59.3216 74.1146 58.9572 73.5968 58.4131 73.5022C57.8689 73.4075 57.3511 73.7719 57.2565 74.316L59.2269 74.6587ZM50.5001 95.6351C50.2531 96.1291 50.4534 96.7297 50.9473 96.9767C51.4413 97.2237 52.042 97.0235 52.289 96.5295L50.5001 95.6351ZM68.5394 70.7505C68.2209 70.2992 67.5969 70.1917 67.1457 70.5102C66.6945 70.8287 66.587 71.4526 66.9054 71.9038L68.5394 70.7505ZM79.5464 89.8118C79.8649 90.263 80.4888 90.3706 80.94 90.0521C81.3912 89.7336 81.4988 89.1096 81.1803 88.6584L79.5464 89.8118ZM71.8566 65.1656C71.3626 64.9187 70.7619 65.1189 70.5149 65.6129C70.2679 66.1068 70.4682 66.7075 70.9621 66.9545L71.8566 65.1656ZM89.6115 80.4052C89.9709 80.8245 90.6022 80.8731 91.0215 80.5137C91.4409 80.1543 91.4894 79.5229 91.13 79.1036L89.6115 80.4052ZM66.9463 52.2619C66.598 52.6905 66.6632 53.3203 67.0918 53.6686C67.5205 54.0168 68.1503 53.9517 68.4985 53.523L66.9463 52.2619ZM88.1986 38.5052C88.6886 38.2504 88.8792 37.6466 88.6244 37.1566C88.3696 36.6666 87.7659 36.476 87.2759 36.7308L88.1986 38.5052ZM70.5731 56.6819C70.0479 56.8529 69.7608 57.4172 69.9318 57.9424C70.1028 58.4675 70.6671 58.7546 71.1922 58.5837L70.5731 56.6819ZM93.8406 51.2098C94.3657 51.0388 94.6528 50.4745 94.4819 49.9493C94.3109 49.4242 93.7466 49.1371 93.2214 49.308L93.8406 51.2098ZM58.2951 50.2589C58.2951 50.8112 58.7428 51.2589 59.2951 51.2589C59.8474 51.2589 60.2951 50.8112 60.2951 50.2589H58.2951ZM60.2951 24.9771C60.2951 24.4248 59.8474 23.9771 59.2951 23.9771C58.7428 23.9771 58.2951 24.4248 58.2951 24.9771H60.2951ZM52.6165 52.3048C52.8737 52.7935 53.4784 52.9812 53.9671 52.7239C54.4558 52.4667 54.6435 51.862 54.3863 51.3733L52.6165 52.3048ZM46.5828 27.9484C46.4785 27.4061 45.9543 27.051 45.4119 27.1553C44.8696 27.2596 44.5145 27.7838 44.6188 28.3261L46.5828 27.9484ZM43.8747 9.13053C51.4285 6.21278 63.4033 4.20402 75.6753 9.30414L76.4428 7.45728C63.5608 2.10363 51.0317 4.22204 43.1541 7.26487L43.8747 9.13053ZM81.4847 16.1105C82.5277 20.8829 82.776 26.9192 80.0416 31.2942L81.7376 32.3542C84.8998 27.2947 84.5122 20.5959 83.4386 15.6835L81.4847 16.1105ZM60.5764 50.9151C64.0558 46.9138 73.9501 37.237 81.4111 32.6775L80.3682 30.9709C72.66 35.6815 62.6106 45.5279 59.0672 49.6027L60.5764 50.9151ZM81.5404 32.5835C83.4799 30.9211 87.4649 28.143 94.7288 26.6719L94.3318 24.7117C86.6963 26.2581 82.4067 29.2068 80.2388 31.065L81.5404 32.5835ZM102.591 28.5399C108.322 33.6079 115.184 44.1063 114.056 60.6509L116.051 60.787C117.225 43.5739 110.074 32.487 103.915 27.0416L102.591 28.5399ZM110.87 67.1469C107.782 69.4318 102.689 71.7931 95.3556 71.5111L95.2787 73.5096C103.111 73.8108 108.644 71.2822 112.06 68.7545L110.87 67.1469ZM71.0643 59.6248C75.1557 61.129 81.5923 64.1634 87.9721 68.4361C94.3611 72.7149 100.614 78.1827 104.429 84.5268L106.143 83.496C102.113 76.7955 95.5912 71.1316 89.085 66.7743C82.5697 62.4109 75.9906 59.3051 71.7544 57.7476L71.0643 59.6248ZM104.278 94.011C99.9962 100.884 91.6351 109.689 78.7625 112.992L79.2596 114.929C92.7721 111.462 101.51 102.236 105.975 95.0685L104.278 94.011ZM70.0282 111.046C66.3254 107.859 62.4978 103.185 62.0524 98.0451L60.0598 98.2178C60.5749 104.162 64.9122 109.282 68.7236 112.562L70.0282 111.046ZM65.6715 72.3099C65.2979 77.5847 63.3505 89.6251 60.1264 97.7631L61.9858 98.4998C65.3095 90.1102 67.284 77.8521 67.6665 72.4512L65.6715 72.3099ZM60.0796 97.916C59.5293 100.411 58.0152 105.026 53.0953 110.569L54.591 111.897C59.7627 106.07 61.4175 101.135 62.0326 98.3469L60.0796 97.916ZM45.6899 113.803C38.0627 113.2 26.2681 108.936 17.2225 95.0372L15.5462 96.1281C24.9573 110.588 37.337 115.148 45.5321 115.797L45.6899 113.803ZM15.9682 87.9883C17.2365 84.1824 20.2082 79.0056 26.2997 74.779L25.1595 73.1358C18.6757 77.6347 15.4605 83.1856 14.0708 87.356L15.9682 87.9883ZM25.6925 74.9567C30.5194 75.1358 42.2242 74.4384 50.7918 70.113L49.8905 68.3276C41.7657 72.4295 30.4596 73.1322 25.7667 72.9581L25.6925 74.9567ZM25.8977 72.9716C22.1545 72.333 15.329 70.8973 10.8297 69.2109L10.1277 71.0836C14.8102 72.8387 21.7877 74.2993 25.5614 74.9431L25.8977 72.9716ZM6.5279 63.7711C4.81754 54.7599 5.49479 40.1869 16.7906 29.2479L15.3992 27.8112C3.44447 39.3884 2.78073 54.7541 4.56298 64.1441L6.5279 63.7711ZM49.6011 56.0369C46.4413 51.1443 41.3353 41.4833 39.1119 31.6046L37.1607 32.0438C39.4529 42.2281 44.6841 52.11 47.921 57.1219L49.6011 56.0369ZM39.1119 31.6046C37.9909 26.6237 37.4759 21.4858 38.022 16.622L36.0345 16.3988C35.4566 21.5457 36.0066 26.916 37.1607 32.0438L39.1119 31.6046ZM25.5932 26.644C27.7769 27.0785 30.1307 27.7428 32.2419 28.7028C34.3616 29.6666 36.17 30.8983 37.3418 32.4315L38.9308 31.217C37.4843 29.3244 35.3524 27.9201 33.0697 26.8821C30.7784 25.8403 28.2674 25.1369 25.9835 24.6824L25.5932 26.644ZM16.7906 29.2479C19.1231 26.9891 22.4131 26.0111 25.5932 26.644L25.9835 24.6824C22.1549 23.9205 18.2002 25.0987 15.3992 27.8112L16.7906 29.2479ZM17.2225 95.0372C15.7943 92.8428 15.1996 90.2948 15.9682 87.9883L14.0708 87.356C13.0543 90.4064 13.8944 93.5901 15.5462 96.1281L17.2225 95.0372ZM78.7625 112.992C75.6771 113.783 72.411 113.096 70.0282 111.046L68.7236 112.562C71.6331 115.065 75.5817 115.873 79.2596 114.929L78.7625 112.992ZM104.429 84.5268C106.184 87.4447 106.096 91.0928 104.278 94.011L105.975 95.0685C108.173 91.5409 108.302 87.0859 106.143 83.496L104.429 84.5268ZM94.7288 26.6719C97.5745 26.0956 100.5 26.6915 102.591 28.5399L103.915 27.0416C101.274 24.7059 97.6773 24.0342 94.3318 24.7117L94.7288 26.6719ZM53.0953 110.569C51.1678 112.741 48.4718 114.023 45.6899 113.803L45.5321 115.797C49.0474 116.075 52.3251 114.45 54.591 111.897L53.0953 110.569ZM75.6753 9.30414C78.6167 10.5266 80.8135 13.0393 81.4847 16.1105L83.4386 15.6835C82.619 11.9334 79.9491 8.91443 76.4428 7.45728L75.6753 9.30414ZM10.8297 69.2109C8.54263 68.3536 7.00576 66.2887 6.5279 63.7711L4.56298 64.1441C5.14789 67.2257 7.07811 69.9406 10.1277 71.0836L10.8297 69.2109ZM114.056 60.6509C113.877 63.2672 112.839 65.6901 110.87 67.1469L112.06 68.7545C114.63 66.8525 115.845 63.8041 116.051 60.787L114.056 60.6509ZM43.1541 7.26487C39.2761 8.76278 36.5012 12.2425 36.0345 16.3988L38.022 16.622C38.4027 13.2314 40.6685 10.369 43.8747 9.13053L43.1541 7.26487ZM71.4628 62.3731C71.4628 68.8022 66.2509 74.0141 59.8218 74.0141V76.0141C67.3555 76.0141 73.4628 69.9068 73.4628 62.3731H71.4628ZM59.8218 74.0141C53.3927 74.0141 48.1809 68.8022 48.1809 62.3731H46.1809C46.1809 69.9068 52.2882 76.0141 59.8218 76.0141V74.0141ZM48.1809 62.3731C48.1809 55.944 53.3927 50.7322 59.8218 50.7322V48.7322C52.2882 48.7322 46.1809 54.8395 46.1809 62.3731H48.1809ZM59.8218 50.7322C66.2509 50.7322 71.4628 55.944 71.4628 62.3731H73.4628C73.4628 54.8395 67.3555 48.7322 59.8218 48.7322V50.7322ZM48.5707 57.2178L26.449 49.3172L25.7764 51.2007L47.898 59.1012L48.5707 57.2178ZM47.5016 62.9747C44.2806 63.6528 34.9914 64.6316 24.1579 62.9649L23.8538 64.9416C34.9313 66.6459 44.463 65.6582 47.9136 64.9318L47.5016 62.9747ZM51.1156 71.2614L37.948 89.1694L39.5593 90.3542L52.7269 72.4462L51.1156 71.2614ZM57.2565 74.316C56.5621 78.3091 54.2306 88.1741 50.5001 95.6351L52.289 96.5295C56.1431 88.8214 58.5168 78.7418 59.2269 74.6587L57.2565 74.316ZM66.9054 71.9038L79.5464 89.8118L81.1803 88.6584L68.5394 70.7505L66.9054 71.9038ZM70.9621 66.9545C73.0312 67.989 76.4696 69.9159 80.0137 72.3134C83.568 74.7178 87.1692 77.5559 89.6115 80.4052L91.13 79.1036C88.5159 76.0539 84.7433 73.0982 81.1343 70.6569C77.5153 68.2087 74.0011 66.2379 71.8566 65.1656L70.9621 66.9545ZM68.4985 53.523C70.6961 50.8184 77.7878 43.9188 88.1986 38.5052L87.2759 36.7308C76.6184 42.2727 69.3135 49.3483 66.9463 52.2619L68.4985 53.523ZM71.1922 58.5837L93.8406 51.2098L93.2214 49.308L70.5731 56.6819L71.1922 58.5837ZM60.2951 50.2589V24.9771H58.2951V50.2589H60.2951ZM54.3863 51.3733C52.6707 48.1137 48.6689 38.796 46.5828 27.9484L44.6188 28.3261C46.7464 39.3895 50.8207 48.8928 52.6165 52.3048L54.3863 51.3733Z" fill="#1A6CB5"/>
</svg>
