<svg width="120" height="120" viewBox="0 0 120 120" fill="none" xmlns="http://www.w3.org/2000/svg">
<path d="M42.633 47.1882C40.5135 48.2326 37.5296 50.4049 35.0163 53.7183M60.111 113.611C58.8993 99.0714 54.0742 91.7752 49.0766 88.9458C38.3919 82.8965 31.8356 79.621 30.6856 73.3678C29.0958 64.7231 31.6287 58.1842 35.0163 53.7183M77.828 47.1882C72.1989 49.8354 57.2786 53.5415 42.63 47.1882C43.0115 45.5328 45.7657 42.0619 53.7309 41.421M77.828 47.1882C76.5858 45.2658 72.0333 41.421 65.533 41.421M77.828 47.1882C81.9756 49.232 89.0992 55.5945 89.7531 66.3759M59.8697 113.611C61.0813 99.0715 65.9065 91.7753 70.9041 88.9458C81.5888 82.8965 88.145 79.621 89.295 73.3678C89.7562 70.8603 89.8838 68.5299 89.7531 66.3759M53.7309 41.421L50.3054 20.2794C50.2068 19.6712 50.6764 19.1195 51.2925 19.1195H53.7309M53.7309 41.421C53.7309 42.9713 54.7586 46.0322 58.8695 45.8731C62.9804 45.7139 65.0247 42.8387 65.533 41.421M65.533 41.421L69.1134 28.7667L66.7762 27.3246M35.0163 53.7183C36.138 55.8108 40.7288 60.1151 50.1174 60.5925M89.7531 66.3759C89.1058 68.2937 84.907 72.1294 73.2906 72.1294M60.01 38.2391L55.5875 19.1195H53.7309M58.8695 41.421L62.0055 32.6719M53.7309 19.1195L51.6104 10.3951C51.495 9.91999 51.74 9.43104 52.1897 9.23916L57.6422 6.91275C58.2557 6.65101 58.9486 7.05178 59.0276 7.71405L59.5883 12.4131M62.0055 32.6719L64.439 25.8824L66.7762 27.3246M62.0055 32.6719L59.5883 12.4131M59.5883 12.4131H65.5441C66.0899 12.4131 66.5349 12.8507 66.544 13.3964L66.7762 27.3246" stroke="#1A6CB5" stroke-width="2" stroke-linecap="round" stroke-linejoin="round"/>
</svg>
