<svg width="120" height="120" viewBox="0 0 120 120" fill="none" xmlns="http://www.w3.org/2000/svg">
<path d="M60 42.9772L59.6949 43.9296L60 44.0273L60.3051 43.9296L60 42.9772ZM26.5795 47.314L27.452 47.8026L26.5795 47.314ZM26.5795 90.4267L27.481 89.9939L26.5795 90.4267ZM47.7537 113.131L47.8324 112.134L47.7537 113.131ZM60 109.56L60.8618 109.052C60.6821 108.747 60.3543 108.56 60 108.56C59.6457 108.56 59.3179 108.747 59.1382 109.052L60 109.56ZM93.4205 47.314L92.548 47.8026L93.4205 47.314ZM93.4205 90.4267L92.519 89.9939L93.4205 90.4267ZM72.2463 113.131L72.1676 112.134L72.2463 113.131ZM42.6859 21.8474C42.1348 21.8117 41.6591 22.2295 41.6233 22.7807C41.5876 23.3318 42.0054 23.8075 42.5566 23.8432L42.6859 21.8474ZM60.3051 42.0249C55.8524 40.5984 48.8114 39.1041 42.1234 39.267C35.4959 39.4285 28.8373 41.2353 25.707 46.8254L27.452 47.8026C30.0357 43.1885 35.7076 41.4239 42.1721 41.2665C48.576 41.1105 55.3883 42.5499 59.6949 43.9296L60.3051 42.0249ZM25.707 46.8254C18.3717 59.925 19.4469 77.879 25.678 90.8594L27.481 89.9939C21.4661 77.4639 20.5024 60.2135 27.452 47.8026L25.707 46.8254ZM25.678 90.8594C28.7367 97.2313 31.6534 102.822 35.0588 106.915C38.4889 111.037 42.4798 113.718 47.675 114.128L47.8324 112.134C43.3337 111.779 39.7989 109.485 36.5962 105.635C33.3687 101.756 30.5453 96.3773 27.481 89.9939L25.678 90.8594ZM47.675 114.128C55.639 114.757 59.7425 111.969 60.8618 110.067L59.1382 109.052C58.556 110.042 55.3788 112.73 47.8324 112.134L47.675 114.128ZM60.3051 43.9296C64.6117 42.5499 71.424 41.1105 77.8279 41.2665C84.2924 41.4239 89.9643 43.1885 92.548 47.8026L94.293 46.8254C91.1628 41.2353 84.5041 39.4285 77.8766 39.267C71.1887 39.1041 64.1476 40.5984 59.6949 42.0249L60.3051 43.9296ZM92.548 47.8026C99.4976 60.2135 98.5339 77.4639 92.519 89.9939L94.322 90.8594C100.553 77.879 101.628 59.925 94.293 46.8254L92.548 47.8026ZM92.519 89.9939C89.4548 96.3773 86.6313 101.756 83.4038 105.635C80.2011 109.485 76.6664 111.779 72.1676 112.134L72.325 114.128C77.5203 113.718 81.5111 111.037 84.9413 106.915C88.3466 102.822 91.2633 97.2313 94.322 90.8594L92.519 89.9939ZM72.1676 112.134C64.6212 112.73 61.444 110.042 60.8618 109.052L59.1382 110.067C60.2576 111.969 64.3611 114.757 72.325 114.128L72.1676 112.134ZM60.9938 43.0886C61.3646 39.7808 60.9024 34.7673 58.2795 30.4156C55.6209 26.0045 50.7983 22.3732 42.6859 21.8474L42.5566 23.8432C50.0391 24.3282 54.2584 27.6182 56.5666 31.448C58.9107 35.3372 59.3404 39.8841 59.0062 42.8658L60.9938 43.0886Z" fill="#1A6CB5"/>
<path d="M66.9888 32.9532C64.4613 24.7105 64.8214 7.93629 86.4815 6.78113C88.4673 15.5051 87.349 32.9532 66.9888 32.9532ZM66.9888 32.9532L79.0819 17.0695" stroke="#1A6CB5" stroke-width="2" stroke-linecap="round" stroke-linejoin="round"/>
</svg>
