<svg width="120" height="120" viewBox="0 0 120 120" fill="none" xmlns="http://www.w3.org/2000/svg">
<path d="M60.0228 114.657V94.0944M60.0228 34.5747V52.0919M60.0228 34.5747C56.55 31.7918 51.6881 22.975 60.0228 9.9708M60.0228 34.5747C68.6789 26.446 63.6295 14.7852 60.0228 9.9708M60.0228 94.0944C65.6312 94.0944 77.2753 90.5349 78.9839 76.2967M60.0228 94.0944C60.4106 87.4895 64.7458 74.6831 78.9839 76.2967M60.0228 94.0944C54.2407 94.213 42.3207 90.8196 40.8969 76.2967M60.0228 94.0944C57.6685 77.6446 46.2913 75.3752 40.8969 76.2967M60.0228 94.0944V73.0932M78.9839 76.2967L82.4248 72.4999M40.8969 76.2967L37.5742 72.4999M60.0228 73.0932C65.9081 73.014 77.9397 69.1539 78.9839 54.3463M60.0228 73.0932C60.4897 66.8442 64.9356 54.3463 78.9839 54.3463M60.0228 73.0932C54.755 73.1723 43.5551 69.5336 40.8969 54.3463M60.0228 73.0932C57.5732 56.2922 46.2515 53.5948 40.8969 54.3463M60.0228 73.0932V52.0919M78.9839 54.3463L82.4248 50.9054M40.8969 54.3463L37.5742 50.9054M60.0228 52.0919C54.043 51.6569 41.9649 47.2272 41.4902 32.9891M60.0228 52.0919C58.9021 36.6198 47.2008 32.91 41.4902 32.9891M60.0228 52.0919C60.3711 45.7243 64.5085 32.9891 78.2721 32.9891M60.0228 52.0919C66.5014 51.1823 79.2213 46.0882 78.2721 32.9891M41.4902 32.9891L37.5742 29.5482M78.2721 32.9891L82.4248 29.5482M60.0228 9.9708V5.34338" stroke="#1A6CB5" stroke-width="2" stroke-linecap="round" stroke-linejoin="round"/>
</svg>
