<svg width="120" height="120" viewBox="0 0 120 120" fill="none" xmlns="http://www.w3.org/2000/svg">
<g clip-path="url(#clip0_347_1563)">
<circle cx="75.5296" cy="68.6504" r="12.4358" fill="#DFF2E5" stroke="#1A6CB5" stroke-width="2"/>
<circle cx="66.5194" cy="86.117" r="11.2498" fill="#DFF2E5" stroke="#1A6CB5" stroke-width="2"/>
<circle cx="45.0213" cy="85.1686" r="11.2498" fill="#DFF2E5" stroke="#1A6CB5" stroke-width="2"/>
<circle cx="23.0506" cy="86.117" r="11.2498" fill="#DFF2E5" stroke="#1A6CB5" stroke-width="2"/>
<circle cx="20.5233" cy="105.001" r="11.2498" fill="#DFF2E5" stroke="#1A6CB5" stroke-width="2"/>
<circle cx="38.5428" cy="101.207" r="11.2498" fill="#DFF2E5" stroke="#1A6CB5" stroke-width="2"/>
<path d="M98.3705 45.9611C98.759 46.3536 99.3922 46.3568 99.7847 45.9682C100.177 45.5797 100.18 44.9465 99.7918 44.554L98.3705 45.9611ZM102.084 31.506L102.991 31.9288C103.108 31.6774 103.115 31.3884 103.011 31.1311C102.907 30.8739 102.701 30.6714 102.442 30.5721L102.084 31.506ZM99.0812 34.5092L98.7649 33.5605C98.3087 33.7126 98.0254 34.1678 98.0903 34.6442C98.1553 35.1207 98.5501 35.4835 99.0304 35.5079L99.0812 34.5092ZM111.726 42.4124L112.205 43.2903C112.663 43.0405 112.852 42.4807 112.639 42.0045L111.726 42.4124ZM106.51 45.2576L106.031 44.3797C105.587 44.6222 105.394 45.1587 105.582 45.6289L106.51 45.2576ZM109.988 53.9511L109.815 54.9361C110.172 54.9987 110.535 54.863 110.764 54.5814C110.993 54.2998 111.051 53.9165 110.916 53.5797L109.988 53.9511ZM100.978 52.3705L101.151 51.3855C100.63 51.2942 100.129 51.6234 100.006 52.1371L100.978 52.3705ZM99.0812 60.2737L98.564 61.1296C98.8371 61.2946 99.1724 61.3193 99.4668 61.1963C99.7611 61.0733 99.9791 60.8172 100.054 60.507L99.0812 60.2737ZM91.4941 49.0511H92.4941C92.4941 48.6271 92.2267 48.2492 91.8269 48.1081C91.4271 47.967 90.9818 48.0933 90.7156 48.4233L91.4941 49.0511ZM87.5424 53.9511L87.1403 54.8667C87.5537 55.0482 88.0374 54.9303 88.3209 54.5788L87.5424 53.9511ZM67.5597 41.8145C70.5705 39.75 76.3517 37.4416 82.97 38.1307L83.1771 36.1415C76.0132 35.3955 69.7655 37.8769 66.4286 40.1651L67.5597 41.8145ZM82.97 38.1307C87.8599 38.6399 93.25 40.7883 98.3705 45.9611L99.7918 44.554C94.3468 39.0535 88.528 36.6986 83.1771 36.1415L82.97 38.1307ZM84.0074 37.4936C84.6455 35.8268 86.2948 33.5028 89.1433 32.1246C91.9579 30.7629 96.0596 30.2693 101.727 32.4398L102.442 30.5721C96.3491 28.2385 91.6639 28.6833 88.2723 30.3243C84.9146 31.9488 82.9385 34.6919 82.1396 36.7786L84.0074 37.4936ZM101.178 31.0831C101.031 31.3979 100.71 31.942 100.261 32.4559C99.8047 32.9773 99.2873 33.3864 98.7649 33.5605L99.3974 35.4579C100.392 35.1262 101.192 34.4288 101.766 33.7726C102.347 33.1089 102.769 32.4043 102.991 31.9288L101.178 31.0831ZM99.0304 35.5079C100.459 35.5805 102.821 36.0398 105.129 37.1868C107.429 38.33 109.607 40.1201 110.813 42.8203L112.639 42.0045C111.19 38.7615 108.6 36.679 106.019 35.3959C103.445 34.1166 100.812 33.5959 99.1319 33.5105L99.0304 35.5079ZM111.247 41.5345L106.031 44.3797L106.989 46.1354L112.205 43.2903L111.247 41.5345ZM105.582 45.6289L109.059 54.3225L110.916 53.5797L107.439 44.8862L105.582 45.6289ZM110.16 52.9661L101.151 51.3855L100.805 53.3554L109.815 54.9361L110.16 52.9661ZM100.006 52.1371L98.1088 60.0403L100.054 60.507L101.95 52.6038L100.006 52.1371ZM99.5983 59.4178C98.4212 58.7066 96.6159 57.3024 95.1162 55.4515C93.6118 53.5948 92.4941 51.3887 92.4941 49.0511H90.4941C90.4941 52.0245 91.9053 54.6656 93.5623 56.7106C95.2238 58.7612 97.2121 60.3128 98.564 61.1296L99.5983 59.4178ZM90.7156 48.4233L86.764 53.3233L88.3209 54.5788L92.2725 49.6789L90.7156 48.4233ZM87.9446 53.0355C85.8775 52.1276 81.4446 47.7172 84.0434 37.3799L82.1037 36.8923C79.3225 47.9554 83.9865 53.4814 87.1403 54.8667L87.9446 53.0355Z" fill="#1A6CB5"/>
<path d="M45.2793 18.646C44.7566 18.4675 44.4775 17.8992 44.656 17.3765C44.8344 16.8538 45.4027 16.5748 45.9254 16.7532L45.2793 18.646ZM57.683 8.20003L56.9072 7.56904C57.0823 7.35374 57.339 7.2209 57.6159 7.20228C57.8928 7.18366 58.165 7.28094 58.3673 7.47085L57.683 8.20003ZM56.1626 12.5809L57.1542 12.4517C57.2163 12.9285 56.9303 13.382 56.4732 13.5314C56.0161 13.6808 55.5174 13.4837 55.286 13.0622L56.1626 12.5809ZM42.3757 3.92084L41.3768 3.87286C41.4019 3.35184 41.8232 2.93757 42.3446 2.92133L42.3757 3.92084ZM42.0644 10.4006L43.0633 10.4486C43.039 10.9544 42.6403 11.3623 42.1352 11.3981L42.0644 10.4006ZM31.867 11.1242L31.0561 11.7093C30.8438 11.4151 30.8075 11.0291 30.9612 10.7005C31.1149 10.372 31.4344 10.1524 31.7962 10.1267L31.867 11.1242ZM37.7106 19.2234L38.5216 18.6383C38.8307 19.0667 38.7533 19.6616 38.3448 19.9966L37.7106 19.2234ZM30.8491 24.8507L30.3044 25.6894C30.0369 25.5156 29.8683 25.2246 29.8506 24.9061C29.8329 24.5876 29.9683 24.2798 30.2149 24.0775L30.8491 24.8507ZM45.4884 26.9605L45.0522 26.0606C45.4337 25.8757 45.8904 25.9514 46.1918 26.2496C46.4931 26.5478 46.5737 27.0037 46.3928 27.3871L45.4884 26.9605ZM42.556 33.1764L41.9075 33.9376C41.5639 33.6449 41.459 33.1581 41.6516 32.7498L42.556 33.1764ZM64.0873 47.0433C64.6846 43.084 64.1972 36.282 60.3551 30.0863L62.0548 29.0323C66.186 35.6941 66.7212 42.9914 66.0649 47.3416L64.0873 47.0433ZM60.3551 30.0863C57.5148 25.5064 52.82 21.2202 45.2793 18.646L45.9254 16.7532C53.9027 19.4765 58.9703 24.0585 62.0548 29.0323L60.3551 30.0863ZM60.4758 28.8749C61.8237 27.4391 63.3324 24.69 63.3299 21.2091C63.3274 17.7659 61.8453 13.4778 56.9987 8.9292L58.3673 7.47085C63.5464 12.3314 65.3269 17.1233 65.3299 21.2076C65.3328 25.2542 63.5895 28.4802 61.934 30.2437L60.4758 28.8749ZM58.4588 8.83101C58.2143 9.13164 57.8279 9.71351 57.5336 10.4082C57.2353 11.1122 57.0735 11.8328 57.1542 12.4517L55.1709 12.7101C55.0259 11.5972 55.3239 10.4968 55.6921 9.62795C56.0641 8.74985 56.5509 8.00714 56.9072 7.56904L58.4588 8.83101ZM55.286 13.0622C54.5286 11.6828 52.9447 9.5713 50.708 7.84189C48.4781 6.11777 45.6616 4.81895 42.4068 4.92036L42.3446 2.92133C46.1936 2.8014 49.4526 4.34315 51.9313 6.25967C54.4032 8.17089 56.1608 10.5001 57.0391 12.0996L55.286 13.0622ZM43.3745 3.96883L43.0633 10.4486L41.0656 10.3526L41.3768 3.87286L43.3745 3.96883ZM42.1352 11.3981L31.9378 12.1217L31.7962 10.1267L41.9936 9.40312L42.1352 11.3981ZM32.678 10.5391L38.5216 18.6383L36.8997 19.8085L31.0561 11.7093L32.678 10.5391ZM38.3448 19.9966L31.4832 25.6239L30.2149 24.0775L37.0765 18.4502L38.3448 19.9966ZM31.3937 24.012C32.6608 24.8349 34.91 25.9445 37.4542 26.5392C40.0056 27.1356 42.7293 27.1866 45.0522 26.0606L45.9246 27.8603C43.0295 29.2636 39.7863 29.1382 36.999 28.4867C34.2044 27.8335 31.7429 26.6236 30.3044 25.6894L31.3937 24.012ZM46.3928 27.3871L43.4604 33.6031L41.6516 32.7498L44.584 26.5338L46.3928 27.3871ZM43.2045 32.4152C45.1224 34.0491 51.6174 36.2912 60.5625 28.7929L61.8473 30.3257C52.3286 38.3047 44.729 36.3412 41.9075 33.9376L43.2045 32.4152Z" fill="#1A6CB5"/>
<circle cx="54.2694" cy="68.0977" r="11.2498" fill="#DFF2E5" stroke="#1A6CB5" stroke-width="2"/>
<circle cx="39.4119" cy="54.1881" r="11.2498" fill="#DFF2E5" stroke="#1A6CB5" stroke-width="2"/>
<circle cx="33.8787" cy="71.2586" r="11.2498" fill="#DFF2E5" stroke="#1A6CB5" stroke-width="2"/>
<circle cx="68.4959" cy="50.5526" r="11.2498" fill="#DFF2E5" stroke="#1A6CB5" stroke-width="2"/>
<circle cx="53.1639" cy="46.759" r="11.2498" fill="#DFF2E5" stroke="#1A6CB5" stroke-width="2"/>
</g>
<defs>
<clipPath id="clip0_347_1563">
<rect width="120" height="120" fill="white"/>
</clipPath>
</defs>
</svg>
