<svg width="120" height="120" viewBox="0 0 120 120" fill="none" xmlns="http://www.w3.org/2000/svg">
<path d="M64.789 32.4866C64.575 26.587 67.4217 14.0446 80.5199 11.0723C83.268 15.7858 85.796 27.5613 73.9232 36.955" stroke="#1A6CB5" stroke-width="2" stroke-linecap="round" stroke-linejoin="round"/>
<path d="M54.547 32.4866C54.7609 26.587 51.9142 14.0446 38.816 11.0723C36.0679 15.7858 33.5399 27.5613 45.4127 36.955" stroke="#1A6CB5" stroke-width="2" stroke-linecap="round" stroke-linejoin="round"/>
<path d="M82.1504 43.596C85.8254 38.9759 96.6689 33.4367 108.551 39.699C107.572 45.0666 102.401 56.8899 87.2731 56.302" stroke="#1A6CB5" stroke-width="2" stroke-linecap="round" stroke-linejoin="round"/>
<path d="M97.3578 22.6653C84.133 20.3197 76.6404 30.7733 74.5473 36.2933L73.9183 42.6852L81.2305 43.9572C95.8189 39.9093 98.0605 28.076 97.3578 22.6653Z" fill="#E5EDE9" stroke="#1A6CB5" stroke-width="2" stroke-linecap="round" stroke-linejoin="round"/>
<path d="M87.7666 64.6742C93.6354 64.0347 106.117 67.3696 110.028 80.2188C105.525 83.3002 93.5608 87.5584 83.3339 76.3952" stroke="#1A6CB5" stroke-width="2" stroke-linecap="round" stroke-linejoin="round"/>
<path d="M76.2407 83.1915C80.8935 86.8251 86.5662 97.3286 80.4103 109.266C75.0342 108.335 64.395 102.691 64.8477 87.558" stroke="#1A6CB5" stroke-width="2" stroke-linecap="round" stroke-linejoin="round"/>
<path d="M37.4009 44.9562C36.2837 43.5517 33.8145 42.6403 31.6119 41.1486C26.5689 37.7332 19.0554 35.3404 10.7855 39.699C11.7642 45.0666 16.4837 56.3974 31.6119 55.8096" stroke="#1A6CB5" stroke-width="2" stroke-linecap="round" stroke-linejoin="round"/>
<path d="M32.2912 65.4118C26.4225 64.7723 13.2234 67.3695 9.31269 80.2188C13.8154 83.3002 25.4643 87.9661 35.6912 76.8029" stroke="#1A6CB5" stroke-width="2" stroke-linecap="round" stroke-linejoin="round"/>
<path d="M43.4422 82.699C38.7894 86.3326 32.7645 97.3286 38.9204 109.266C44.2966 108.335 55.6161 103.151 55.1634 88.0178" stroke="#1A6CB5" stroke-width="2" stroke-linecap="round" stroke-linejoin="round"/>
<path d="M21.9842 22.6654C35.209 20.3197 42.9626 30.7552 45.1729 37.1434L44.0188 45.0021L37.263 44.5885C37.263 44.5885 33.1223 42.0824 31.1566 40.82C22.9577 35.5547 21.4173 27.0297 21.9842 22.6654Z" fill="#DFF2E5" stroke="#1A6CB5" stroke-width="2" stroke-linecap="round" stroke-linejoin="round"/>
<path d="M59.6621 6.80292C49.2024 15.2286 52.1568 27.7461 54.9414 32.9516L60.0246 37.0889L65.11 32.9516C71.6472 19.2962 64.2019 9.82937 59.6621 6.80292Z" fill="#DFF2E5" stroke="#1A6CB5" stroke-width="2" stroke-linecap="round" stroke-linejoin="round"/>
<path d="M113.78 59.6001C105.188 49.2768 92.7191 52.4313 87.5589 55.299L74.0393 60.7113L87.7219 65.4664C101.48 71.7839 110.827 64.1878 113.78 59.6001Z" fill="#DFF2E5" stroke="#1A6CB5" stroke-width="2" stroke-linecap="round" stroke-linejoin="round"/>
<path d="M97.3338 97.5484C99.0265 84.2243 88.2173 77.2546 82.6011 75.4353L75.7378 76.7423L75.2749 82.4872C80.035 96.8589 91.9642 98.5162 97.3338 97.5484Z" fill="#DFF2E5" stroke="#1A6CB5" stroke-width="2" stroke-linecap="round" stroke-linejoin="round"/>
<path d="M5.56014 59.6001C14.1524 49.2768 27.7976 53.1606 32.9578 56.0283L37.9588 60.613L32.9615 65.1456C19.203 71.4631 8.51347 64.1878 5.56014 59.6001Z" fill="#DFF2E5" stroke="#1A6CB5" stroke-width="2" stroke-linecap="round" stroke-linejoin="round"/>
<path d="M22.0022 97.5484C20.3094 84.2243 31.1186 77.2546 36.7349 75.4353L45.1037 74.3216L44.061 82.4872C39.301 96.8589 27.3718 98.5162 22.0022 97.5484Z" fill="#DFF2E5" stroke="#1A6CB5" stroke-width="2" stroke-linecap="round" stroke-linejoin="round"/>
<path d="M60.1591 112.733C70.8477 104.6 68.2405 92.0058 65.6008 86.7253L60.9633 83.5035L55.4361 86.4442C48.5239 99.9137 55.7047 109.583 60.1591 112.733Z" fill="#DFF2E5" stroke="#1A6CB5" stroke-width="2" stroke-linecap="round" stroke-linejoin="round"/>
<circle cx="59.9989" cy="60" r="26.7255" fill="#DFF2E5" stroke="#1A6CB5" stroke-width="2"/>
</svg>
