<svg width="120" height="120" viewBox="0 0 120 120" fill="none" xmlns="http://www.w3.org/2000/svg">
<path d="M72.8875 25.0881C76.5217 32.3566 81.9731 30.7666 84.2445 29.0631C83.8659 30.7666 84.2444 34.5145 88.7872 35.8773C94.4657 37.5809 102.984 35.3095 103.551 28.4952C104.006 23.0439 100.712 20.1667 99.0085 19.4096C100.523 18.6525 103.438 16.2296 102.984 12.5954C102.416 8.05253 97.8728 3.50975 90.4908 2.9419C84.5851 2.48762 83.1087 9.18826 83.1087 12.5954C81.2915 8.50683 77.0517 9.7561 75.1589 10.8918C72.8875 12.5954 69.2532 17.8196 72.8875 25.0881Z" stroke="#1A6CB5" stroke-width="2" stroke-linecap="round" stroke-linejoin="round"/>
<path d="M84.2468 29.6309L75.2383 50.6507C74.4381 52.5179 74.0254 54.5281 74.0254 56.5595V69.8994M74.0254 117.08V80.6731M74.0254 69.8994C79.9185 68.6514 92.146 64.1234 96.1264 55.7186C96.4263 55.0853 95.9285 54.4049 95.2326 54.487C92.0939 54.8569 87.0638 56.195 84.2468 59.5891M74.0254 69.8994V80.6731M74.0254 80.6731L52.541 61.3268" stroke="#1A6CB5" stroke-width="2" stroke-linecap="round" stroke-linejoin="round"/>
<path d="M53.0438 47.2336C56.678 42.2365 61.7509 43.2586 63.833 44.3943C67.2401 46.2528 68.6029 54.8428 64.9687 60.2942C61.3344 65.7456 54.3688 62.5656 51.3402 60.2942C56.8833 66.0419 56.008 70.2856 54.8775 71.689C52.9304 73.9607 47.2836 78.2282 40.2737 77.1248C33.2639 76.0214 35.2976 68.1732 37.1907 64.387C32.7122 71.981 27.1563 71.8242 24.9382 70.7965C21.5037 68.4437 15.0404 62.2938 16.663 56.5172C18.2857 50.7406 26.6964 51.0272 30.699 51.8926C24.5329 51.1787 20.9899 48.4891 19.9892 47.2336C17.6904 43.6482 15.4619 35.4715 24.9382 31.4473C34.4144 27.4231 37.9307 36.3658 39.783 40.9012C38.4755 35.4124 38.8556 29.0049 41.6991 27.5178C46.3468 25.0872 53.8843 27.6961 57.8165 32.9367C60.8744 37.0121 58.2583 42.1448 55.4988 44.8162" stroke="#1A6CB5" stroke-width="2" stroke-linecap="round" stroke-linejoin="round"/>
<path fill-rule="evenodd" clip-rule="evenodd" d="M37.2728 52.4594C38.7143 52.4594 39.8829 51.2908 39.8829 49.8493C39.8829 48.4078 38.7143 47.2392 37.2728 47.2392C35.8313 47.2392 34.6628 48.4078 34.6628 49.8493C34.6628 51.2908 35.8313 52.4594 37.2728 52.4594ZM37.2728 54.0362C39.5852 54.0362 41.4597 52.1617 41.4597 49.8493C41.4597 47.5369 39.5852 45.6624 37.2728 45.6624C34.9605 45.6624 33.0859 47.5369 33.0859 49.8493C33.0859 52.1617 34.9605 54.0362 37.2728 54.0362Z" fill="#1A6CB5"/>
<path fill-rule="evenodd" clip-rule="evenodd" d="M90.6608 20.6574C89.5931 20.3442 88.4736 20.9558 88.1604 22.0235C87.8472 23.0912 88.4589 24.2107 89.5266 24.5239C90.5943 24.8371 91.7137 24.2254 92.0269 23.1577C92.3401 22.09 91.7285 20.9706 90.6608 20.6574ZM91.0034 19.4894C89.2906 18.987 87.4949 19.9682 86.9925 21.6809C86.4901 23.3937 87.4712 25.1894 89.184 25.6918C90.8967 26.1942 92.6924 25.2131 93.1949 23.5003C93.6973 21.7876 92.7161 19.9918 91.0034 19.4894Z" fill="#1A6CB5"/>
<path fill-rule="evenodd" clip-rule="evenodd" d="M44.8373 54.0831C46.2788 54.0831 47.4473 52.9145 47.4473 51.473C47.4473 50.0315 46.2788 48.863 44.8373 48.863C43.3958 48.863 42.2272 50.0315 42.2272 51.473C42.2272 52.9145 43.3958 54.0831 44.8373 54.0831ZM44.8373 55.6599C47.1496 55.6599 49.0242 53.7854 49.0242 51.473C49.0242 49.1607 47.1496 47.2861 44.8373 47.2861C42.5249 47.2861 40.6504 49.1607 40.6504 51.473C40.6504 53.7854 42.5249 55.6599 44.8373 55.6599Z" fill="#1A6CB5"/>
<path fill-rule="evenodd" clip-rule="evenodd" d="M85.4127 17.8112C84.345 17.498 83.2256 18.1096 82.9124 19.1773C82.5992 20.245 83.2108 21.3645 84.2785 21.6777C85.3462 21.9909 86.4657 21.3792 86.7789 20.3115C87.0921 19.2438 86.4804 18.1244 85.4127 17.8112ZM85.7553 16.6432C84.0426 16.1408 82.2468 17.122 81.7444 18.8347C81.242 20.5475 82.2232 22.3432 83.9359 22.8456C85.6487 23.348 87.4444 22.3669 87.9468 20.6541C88.4492 18.9414 87.4681 17.1457 85.7553 16.6432Z" fill="#1A6CB5"/>
<path fill-rule="evenodd" clip-rule="evenodd" d="M39.8744 58.8396C41.3159 58.8396 42.4845 57.671 42.4845 56.2295C42.4845 54.788 41.3159 53.6194 39.8744 53.6194C38.4329 53.6194 37.2643 54.788 37.2643 56.2295C37.2643 57.671 38.4329 58.8396 39.8744 58.8396ZM39.8744 60.4164C42.1867 60.4164 44.0613 58.5418 44.0613 56.2295C44.0613 53.9171 42.1867 52.0426 39.8744 52.0426C37.562 52.0426 35.6875 53.9171 35.6875 56.2295C35.6875 58.5418 37.562 60.4164 39.8744 60.4164Z" fill="#1A6CB5"/>
<path fill-rule="evenodd" clip-rule="evenodd" d="M90.1237 15.3668C89.056 15.0536 87.9365 15.6652 87.6233 16.7329C87.3101 17.8006 87.9218 18.9201 88.9895 19.2333C90.0572 19.5465 91.1766 18.9348 91.4898 17.8671C91.803 16.7994 91.1914 15.68 90.1237 15.3668ZM90.4663 14.1988C88.7535 13.6964 86.9578 14.6776 86.4554 16.3903C85.953 18.1031 86.9341 19.8988 88.6469 20.4012C90.3596 20.9036 92.1553 19.9225 92.6577 18.2097C93.1602 16.497 92.179 14.7013 90.4663 14.1988Z" fill="#1A6CB5"/>
</svg>
