<svg width="50" height="50" viewBox="0 0 50 50" fill="none" xmlns="http://www.w3.org/2000/svg">
<g clip-path="url(#clip0_1162_1607)">
<path fill-rule="evenodd" clip-rule="evenodd" d="M11.3077 24.7394C18.5963 21.5741 23.4485 19.4708 25.885 18.4504C32.8196 15.5558 34.2773 15.056 35.2144 15.0352C35.4227 15.0352 35.8808 15.0768 36.1932 15.3267C36.4431 15.5349 36.5055 15.8057 36.5472 16.0139C36.5888 16.2222 36.6305 16.6595 36.5888 16.9927C36.214 20.9494 34.5897 30.5495 33.7567 34.9644C33.4027 36.8386 32.7154 37.4633 32.0491 37.5258C30.5913 37.6507 29.4876 36.5679 28.0924 35.6516C25.885 34.2147 24.6563 33.3192 22.5114 31.9031C20.0332 30.2788 21.6367 29.3833 23.0528 27.9256C23.4277 27.5508 29.8208 21.7199 29.9458 21.1993C29.9666 21.1368 29.9666 20.8869 29.8208 20.7619C29.675 20.637 29.4668 20.6786 29.3002 20.7203C29.0711 20.7619 25.5726 23.0943 18.7629 27.6965C17.7633 28.3838 16.8679 28.717 16.0557 28.6961C15.1603 28.6753 13.4526 28.1963 12.1615 27.7798C10.5997 27.2801 9.35019 27.0093 9.45431 26.1347C9.51678 25.6766 10.1415 25.2184 11.3077 24.7394Z" fill="#F5F0E9"/>
</g>
<defs>
<clipPath id="clip0_1162_1607">
<rect width="50" height="50" fill="white"/>
</clipPath>
</defs>
</svg>
