<svg width="120" height="120" viewBox="0 0 120 120" fill="none" xmlns="http://www.w3.org/2000/svg">
<path d="M49.0526 87V81.3349M49.0526 50V59.7368M49.0526 59.7368L53.3474 55.311M49.0526 59.7368V65.756M49.0526 65.756L44.9368 61.6842M49.0526 65.756V73.3684M49.0526 73.3684L58 64.8708M49.0526 73.3684V81.3349M49.0526 81.3349L41 73.3684" stroke="#1A6CB5" stroke-width="2" stroke-linecap="round" stroke-linejoin="round"/>
<path d="M12 23V108C12 110.761 14.2386 113 17 113H83C85.7614 113 88 110.761 88 108V46.2013C88 44.8801 87.4771 43.6126 86.5456 42.6758L63.4756 19.4745C62.5371 18.5307 61.261 18 59.93 18H17C14.2386 18 12 20.2386 12 23Z" stroke="#1A6CB5" stroke-width="2" stroke-linejoin="round"/>
<path d="M69 21L71.5941 18.6704C73.6658 16.8098 76.8584 17.0002 78.6943 19.0939L80.7757 21.4675M84.1415 36.9123L86.2088 34.9519C88.1575 33.1039 88.2983 30.0466 86.5277 28.0273L85.3962 26.7369M85.3962 26.7369L97.4404 15.5893C97.6558 15.3899 97.8868 15.2072 98.142 15.0621C99.9466 14.0362 103.928 12.525 108.918 12.6002C110.251 12.6203 111.499 11.8301 111.903 10.559V10.559C112.458 8.81545 111.215 7.02236 109.386 7.0045C104.498 6.95676 98.0319 7.27272 95.7924 8.74834C92.9245 10.6381 84.5863 18.0152 80.7757 21.4675M85.3962 26.7369L80.7757 21.4675M33.499 24.1931H19C18.4477 24.1931 18 24.6408 18 25.1931V39.597C18 40.4863 19.0739 40.9332 19.7048 40.3064L34.2038 25.9025C34.837 25.2735 34.3915 24.1931 33.499 24.1931Z" stroke="#1A6CB5" stroke-width="2" stroke-linecap="round" stroke-linejoin="round"/>
<path d="M35.6565 63.6798C29.5958 83.5229 41.609 90.0567 48.4751 90.9469C48.7901 90.9877 49.1019 90.9877 49.4169 90.9469C56.2881 90.0568 68.415 83.5231 62.3543 63.6798C60.4636 58.4182 56.0877 47.9661 51.1503 43.4899C49.9549 42.4061 48.1755 42.4065 46.9773 43.4872C42.0164 47.962 37.5476 58.4172 35.6565 63.6798Z" stroke="#1A6CB5" stroke-width="2" stroke-linejoin="round"/>
</svg>
