<svg width="50" height="50" viewBox="0 0 50 50" fill="none" xmlns="http://www.w3.org/2000/svg">
<g clip-path="url(#clip0_296_282)">
<path d="M25.0104 50.0208C38.8233 50.0208 50.0208 38.8233 50.0208 25.0104C50.0208 11.1975 38.8233 0 25.0104 0C11.1975 0 0 11.1975 0 25.0104C0 38.8233 11.1975 50.0208 25.0104 50.0208Z" fill="#1D1D1B"/>
<g clip-path="url(#clip1_296_282)">
<path d="M27.6518 27.6518C25.4911 29.8813 25.3339 32.6607 25.1473 38.75C30.8241 38.75 34.7429 38.7304 36.7661 36.7661C38.7304 34.7429 38.75 30.6375 38.75 25.1473C32.6607 25.3438 29.8813 25.4911 27.6518 27.6518ZM11.25 25.1473C11.25 30.6375 11.2696 34.7429 13.2339 36.7661C15.2571 38.7304 19.1759 38.75 24.8527 38.75C24.6563 32.6607 24.5089 29.8813 22.3482 27.6518C20.1188 25.4911 17.3393 25.3339 11.25 25.1473ZM24.8527 11.25C19.1857 11.25 15.2571 11.2696 13.2339 13.2339C11.2696 15.2571 11.25 19.3625 11.25 24.8527C17.3393 24.6563 20.1188 24.5089 22.3482 22.3482C24.5089 20.1188 24.6661 17.3393 24.8527 11.25ZM27.6518 22.3482C25.4911 20.1188 25.3339 17.3393 25.1473 11.25C30.8241 11.25 34.7429 11.2696 36.7661 13.2339C38.7304 15.2571 38.75 19.3625 38.75 24.8527C32.6607 24.6563 29.8813 24.5089 27.6518 22.3482Z" fill="#F5F0E9"/>
<path d="M38.75 25.1473V24.8527C32.6607 24.6563 29.8813 24.5089 27.6518 22.3482C25.4911 20.1188 25.3339 17.3393 25.1473 11.25H24.8527C24.6563 17.3393 24.5089 20.1188 22.3482 22.3482C20.1188 24.5089 17.3393 24.6661 11.25 24.8527V25.1473C17.3393 25.3438 20.1188 25.4911 22.3482 27.6518C24.5089 29.8813 24.6661 32.6607 24.8527 38.75H25.1473C25.3438 32.6607 25.4911 29.8813 27.6518 27.6518C29.8813 25.4911 32.6607 25.3339 38.75 25.1473Z" fill="#1D1D1B"/>
</g>
</g>
<defs>
<clipPath id="clip0_296_282">
<rect width="50" height="50" fill="white"/>
</clipPath>
<clipPath id="clip1_296_282">
<rect width="27.5" height="27.5" fill="white" transform="translate(11.25 11.25)"/>
</clipPath>
</defs>
</svg>
